<?xml version="1.0" encoding="UTF-8"?>
<svg xmlns="http://www.w3.org/2000/svg" width="1024" height="1024" viewBox="0 0 1024 1024" role="img" aria-labelledby="title desc">
<title id="title">Shot O'Clock primary mark</title>
<desc id="desc">Faithful vector reconstruction of the approved half-full clock mark.</desc>
<path fill="#FFFFFF" fill-rule="evenodd" d="M 495.00 144.00 L 494.00 145.00 L 480.00 145.00 L 479.00 146.00 L 462.00 147.00 L 461.00 148.00 L 455.00 148.00 L 454.00 149.00 L 449.00 149.00 L 448.00 150.00 L 443.00 150.00 L 442.00 151.00 L 438.00 151.00 L 433.00 153.00 L 429.00 153.00 L 428.00 154.00 L 413.00 157.00 L 409.00 159.00 L 406.00 159.00 L 405.00 160.00 L 385.00 166.00 L 382.00 168.00 L 380.00 168.00 L 377.00 170.00 L 375.00 170.00 L 367.00 174.00 L 365.00 174.00 L 356.00 179.00 L 354.00 179.00 L 329.00 192.00 L 295.00 214.00 L 278.00 228.00 L 277.00 228.00 L 272.00 233.00 L 271.00 233.00 L 242.00 261.00 L 242.00 262.00 L 233.00 271.00 L 233.00 272.00 L 220.00 287.00 L 198.00 319.00 L 197.00 322.00 L 192.00 329.00 L 189.00 336.00 L 187.00 338.00 L 179.00 354.00 L 179.00 356.00 L 174.00 365.00 L 174.00 367.00 L 172.00 370.00 L 172.00 372.00 L 166.00 385.00 L 166.00 387.00 L 159.00 406.00 L 159.00 409.00 L 157.00 413.00 L 157.00 416.00 L 156.00 417.00 L 156.00 420.00 L 155.00 421.00 L 155.00 424.00 L 153.00 429.00 L 153.00 433.00 L 151.00 438.00 L 151.00 442.00 L 150.00 443.00 L 149.00 454.00 L 148.00 455.00 L 147.00 469.00 L 146.00 470.00 L 146.00 479.00 L 145.00 480.00 L 145.00 493.00 L 144.00 494.00 L 144.00 529.00 L 145.00 530.00 L 145.00 543.00 L 146.00 544.00 L 147.00 561.00 L 148.00 562.00 L 148.00 568.00 L 149.00 569.00 L 149.00 574.00 L 150.00 575.00 L 150.00 580.00 L 151.00 581.00 L 151.00 585.00 L 153.00 590.00 L 153.00 594.00 L 154.00 595.00 L 157.00 610.00 L 159.00 614.00 L 159.00 617.00 L 160.00 618.00 L 166.00 638.00 L 168.00 641.00 L 168.00 643.00 L 170.00 646.00 L 170.00 648.00 L 172.00 651.00 L 174.00 658.00 L 179.00 667.00 L 179.00 669.00 L 192.00 694.00 L 214.00 728.00 L 228.00 745.00 L 228.00 746.00 L 233.00 751.00 L 233.00 752.00 L 261.00 781.00 L 262.00 781.00 L 270.00 789.00 L 271.00 789.00 L 287.00 803.00 L 319.00 825.00 L 322.00 826.00 L 329.00 831.00 L 336.00 834.00 L 338.00 836.00 L 354.00 844.00 L 356.00 844.00 L 365.00 849.00 L 367.00 849.00 L 372.00 852.00 L 377.00 853.00 L 385.00 857.00 L 387.00 857.00 L 406.00 864.00 L 409.00 864.00 L 413.00 866.00 L 416.00 866.00 L 417.00 867.00 L 420.00 867.00 L 421.00 868.00 L 424.00 868.00 L 429.00 870.00 L 433.00 870.00 L 438.00 872.00 L 443.00 872.00 L 444.00 873.00 L 448.00 873.00 L 449.00 874.00 L 454.00 874.00 L 455.00 875.00 L 469.00 876.00 L 470.00 877.00 L 479.00 877.00 L 480.00 878.00 L 494.00 878.00 L 495.00 879.00 L 528.00 879.00 L 529.00 878.00 L 543.00 878.00 L 544.00 877.00 L 561.00 876.00 L 562.00 875.00 L 568.00 875.00 L 569.00 874.00 L 574.00 874.00 L 575.00 873.00 L 579.00 873.00 L 580.00 872.00 L 585.00 872.00 L 590.00 870.00 L 594.00 870.00 L 595.00 869.00 L 610.00 866.00 L 614.00 864.00 L 617.00 864.00 L 618.00 863.00 L 638.00 857.00 L 641.00 855.00 L 643.00 855.00 L 646.00 853.00 L 648.00 853.00 L 656.00 849.00 L 658.00 849.00 L 667.00 844.00 L 669.00 844.00 L 694.00 831.00 L 728.00 809.00 L 745.00 795.00 L 746.00 795.00 L 752.00 789.00 L 753.00 789.00 L 781.00 762.00 L 781.00 761.00 L 789.00 753.00 L 789.00 752.00 L 803.00 736.00 L 825.00 704.00 L 826.00 701.00 L 831.00 694.00 L 834.00 687.00 L 836.00 685.00 L 844.00 669.00 L 844.00 667.00 L 849.00 658.00 L 849.00 656.00 L 855.00 643.00 L 856.00 638.00 L 858.00 635.00 L 858.00 633.00 L 863.00 620.00 L 863.00 617.00 L 866.00 610.00 L 866.00 607.00 L 867.00 606.00 L 867.00 603.00 L 868.00 602.00 L 868.00 599.00 L 870.00 594.00 L 870.00 590.00 L 872.00 585.00 L 872.00 580.00 L 873.00 579.00 L 873.00 575.00 L 874.00 574.00 L 874.00 569.00 L 875.00 568.00 L 876.00 554.00 L 877.00 553.00 L 877.00 544.00 L 878.00 543.00 L 878.00 529.00 L 879.00 528.00 L 879.00 495.00 L 878.00 494.00 L 878.00 480.00 L 877.00 479.00 L 876.00 462.00 L 875.00 461.00 L 875.00 455.00 L 874.00 454.00 L 874.00 449.00 L 873.00 448.00 L 873.00 444.00 L 872.00 443.00 L 872.00 438.00 L 870.00 433.00 L 870.00 429.00 L 869.00 428.00 L 866.00 413.00 L 863.00 406.00 L 863.00 403.00 L 862.00 402.00 L 857.00 385.00 L 855.00 382.00 L 855.00 380.00 L 853.00 377.00 L 853.00 375.00 L 851.00 372.00 L 849.00 365.00 L 844.00 356.00 L 844.00 354.00 L 831.00 329.00 L 809.00 295.00 L 795.00 278.00 L 795.00 277.00 L 790.00 272.00 L 790.00 271.00 L 762.00 242.00 L 761.00 242.00 L 753.00 234.00 L 752.00 234.00 L 736.00 220.00 L 704.00 198.00 L 701.00 197.00 L 694.00 192.00 L 687.00 189.00 L 685.00 187.00 L 669.00 179.00 L 667.00 179.00 L 658.00 174.00 L 656.00 174.00 L 651.00 171.00 L 646.00 170.00 L 638.00 166.00 L 636.00 166.00 L 617.00 159.00 L 614.00 159.00 L 610.00 157.00 L 607.00 157.00 L 606.00 156.00 L 603.00 156.00 L 602.00 155.00 L 599.00 155.00 L 598.00 154.00 L 595.00 154.00 L 590.00 152.00 L 581.00 151.00 L 580.00 150.00 L 569.00 149.00 L 568.00 148.00 L 554.00 147.00 L 553.00 146.00 L 544.00 146.00 L 543.00 145.00 L 529.00 145.00 L 528.00 144.00 Z M 794.00 508.00 L 796.00 505.00 L 800.00 502.00 L 856.00 502.00 L 861.00 506.00 L 863.00 512.00 L 861.00 517.00 L 856.00 521.00 L 800.00 521.00 L 797.00 519.00 L 794.00 515.00 Z M 160.00 511.00 L 162.00 506.00 L 167.00 502.00 L 223.00 502.00 L 226.00 504.00 L 229.00 508.00 L 229.00 515.00 L 227.00 517.00 L 235.00 517.00 L 236.00 518.00 L 252.00 519.00 L 253.00 520.00 L 258.00 520.00 L 259.00 521.00 L 268.00 522.00 L 269.00 523.00 L 280.00 525.00 L 284.00 527.00 L 287.00 527.00 L 294.00 530.00 L 297.00 530.00 L 298.00 531.00 L 312.00 535.00 L 315.00 537.00 L 323.00 539.00 L 326.00 541.00 L 334.00 543.00 L 342.00 547.00 L 350.00 549.00 L 353.00 551.00 L 369.00 556.00 L 372.00 558.00 L 374.00 558.00 L 375.00 559.00 L 377.00 559.00 L 378.00 560.00 L 380.00 560.00 L 381.00 561.00 L 383.00 561.00 L 405.00 569.00 L 408.00 569.00 L 419.00 573.00 L 426.00 574.00 L 430.00 576.00 L 438.00 577.00 L 439.00 578.00 L 447.00 579.00 L 448.00 580.00 L 452.00 580.00 L 453.00 581.00 L 457.00 581.00 L 458.00 582.00 L 463.00 582.00 L 464.00 583.00 L 470.00 583.00 L 471.00 584.00 L 477.00 584.00 L 478.00 585.00 L 486.00 585.00 L 487.00 586.00 L 499.00 586.00 L 500.00 587.00 L 543.00 587.00 L 544.00 586.00 L 564.00 585.00 L 565.00 584.00 L 578.00 583.00 L 579.00 582.00 L 584.00 582.00 L 585.00 581.00 L 599.00 579.00 L 600.00 578.00 L 603.00 578.00 L 604.00 577.00 L 607.00 577.00 L 608.00 576.00 L 623.00 573.00 L 627.00 571.00 L 630.00 571.00 L 640.00 567.00 L 643.00 567.00 L 644.00 566.00 L 664.00 560.00 L 667.00 558.00 L 681.00 554.00 L 684.00 552.00 L 695.00 549.00 L 698.00 547.00 L 700.00 547.00 L 701.00 546.00 L 703.00 546.00 L 704.00 545.00 L 706.00 545.00 L 707.00 544.00 L 709.00 544.00 L 710.00 543.00 L 712.00 543.00 L 734.00 535.00 L 737.00 535.00 L 741.00 533.00 L 744.00 533.00 L 748.00 531.00 L 756.00 530.00 L 761.00 528.00 L 765.00 528.00 L 766.00 527.00 L 770.00 527.00 L 771.00 526.00 L 777.00 526.00 L 778.00 525.00 L 785.00 525.00 L 786.00 524.00 L 823.00 524.00 L 824.00 525.00 L 831.00 525.00 L 832.00 526.00 L 836.00 526.00 L 837.00 527.00 L 841.00 527.00 L 842.00 528.00 L 853.00 530.00 L 857.00 532.00 L 857.00 544.00 L 856.00 545.00 L 856.00 553.00 L 855.00 554.00 L 855.00 561.00 L 854.00 562.00 L 853.00 573.00 L 852.00 574.00 L 852.00 578.00 L 851.00 579.00 L 851.00 583.00 L 850.00 584.00 L 850.00 588.00 L 849.00 589.00 L 846.00 604.00 L 845.00 605.00 L 845.00 607.00 L 843.00 611.00 L 843.00 614.00 L 842.00 615.00 L 838.00 629.00 L 836.00 632.00 L 835.00 637.00 L 818.00 674.00 L 816.00 676.00 L 813.00 683.00 L 811.00 685.00 L 804.00 698.00 L 784.00 726.00 L 779.00 731.00 L 774.00 738.00 L 765.00 747.00 L 765.00 748.00 L 738.00 774.00 L 737.00 774.00 L 731.00 780.00 L 707.00 798.00 L 698.00 804.00 L 695.00 805.00 L 693.00 807.00 L 690.00 808.00 L 688.00 810.00 L 685.00 811.00 L 683.00 813.00 L 656.00 827.00 L 654.00 827.00 L 649.00 830.00 L 647.00 830.00 L 642.00 833.00 L 632.00 836.00 L 629.00 838.00 L 627.00 838.00 L 611.00 844.00 L 608.00 844.00 L 604.00 846.00 L 601.00 846.00 L 600.00 847.00 L 597.00 847.00 L 596.00 848.00 L 593.00 848.00 L 588.00 850.00 L 574.00 852.00 L 573.00 853.00 L 562.00 854.00 L 561.00 855.00 L 545.00 856.00 L 544.00 857.00 L 532.00 857.00 L 531.00 858.00 L 492.00 858.00 L 491.00 857.00 L 479.00 857.00 L 478.00 856.00 L 462.00 855.00 L 461.00 854.00 L 450.00 853.00 L 449.00 852.00 L 445.00 852.00 L 444.00 851.00 L 440.00 851.00 L 439.00 850.00 L 435.00 850.00 L 434.00 849.00 L 419.00 846.00 L 412.00 843.00 L 409.00 843.00 L 408.00 842.00 L 394.00 838.00 L 391.00 836.00 L 389.00 836.00 L 378.00 831.00 L 376.00 831.00 L 367.00 826.00 L 365.00 826.00 L 340.00 813.00 L 309.00 793.00 L 292.00 779.00 L 291.00 779.00 L 286.00 774.00 L 285.00 774.00 L 258.00 748.00 L 258.00 747.00 L 249.00 738.00 L 249.00 737.00 L 239.00 726.00 L 219.00 698.00 L 218.00 695.00 L 210.00 683.00 L 208.00 678.00 L 206.00 676.00 L 192.00 647.00 L 192.00 645.00 L 188.00 637.00 L 187.00 632.00 L 185.00 629.00 L 185.00 627.00 L 179.00 611.00 L 179.00 608.00 L 177.00 604.00 L 177.00 601.00 L 176.00 600.00 L 176.00 597.00 L 175.00 596.00 L 175.00 593.00 L 173.00 588.00 L 173.00 584.00 L 172.00 583.00 L 172.00 579.00 L 171.00 578.00 L 171.00 574.00 L 170.00 573.00 L 170.00 568.00 L 169.00 567.00 L 169.00 562.00 L 168.00 561.00 L 167.00 545.00 L 166.00 544.00 L 166.00 532.00 L 165.00 531.00 L 165.00 528.00 L 168.00 526.00 L 170.00 526.00 L 177.00 523.00 L 188.00 521.00 L 167.00 521.00 L 162.00 517.00 Z M 813.00 338.00 L 813.00 343.00 L 811.00 346.00 L 796.00 354.00 L 789.00 359.00 L 785.00 361.00 L 783.00 361.00 L 778.00 357.00 L 777.00 353.00 L 780.00 349.00 L 788.00 345.00 L 795.00 340.00 L 800.00 338.00 L 802.00 336.00 L 807.00 334.00 L 808.00 335.00 L 810.00 335.00 Z M 210.00 338.00 L 213.00 335.00 L 215.00 335.00 L 216.00 334.00 L 221.00 336.00 L 223.00 338.00 L 228.00 340.00 L 230.00 342.00 L 243.00 349.00 L 246.00 353.00 L 245.00 357.00 L 240.00 361.00 L 238.00 361.00 L 234.00 359.00 L 227.00 354.00 L 212.00 346.00 L 210.00 343.00 Z M 700.00 317.00 L 700.00 319.00 L 692.00 328.00 L 688.00 334.00 L 683.00 339.00 L 683.00 340.00 L 653.00 375.00 L 649.00 381.00 L 619.00 416.00 L 615.00 422.00 L 580.00 463.00 L 576.00 469.00 L 541.00 510.00 L 541.00 511.00 L 537.00 515.00 L 535.00 522.00 L 532.00 527.00 L 524.00 534.00 L 516.00 537.00 L 507.00 537.00 L 506.00 536.00 L 501.00 535.00 L 496.00 532.00 L 491.00 527.00 L 484.00 514.00 L 470.00 494.00 L 469.00 491.00 L 455.00 471.00 L 454.00 468.00 L 440.00 448.00 L 439.00 445.00 L 425.00 425.00 L 424.00 422.00 L 386.00 365.00 L 386.00 361.00 L 389.00 358.00 L 390.00 358.00 L 398.00 351.00 L 401.00 351.00 L 420.00 371.00 L 420.00 372.00 L 428.00 380.00 L 428.00 381.00 L 436.00 389.00 L 436.00 390.00 L 444.00 398.00 L 444.00 399.00 L 452.00 407.00 L 452.00 408.00 L 460.00 416.00 L 460.00 417.00 L 469.00 426.00 L 469.00 427.00 L 477.00 435.00 L 477.00 436.00 L 485.00 444.00 L 485.00 445.00 L 493.00 453.00 L 493.00 454.00 L 501.00 462.00 L 501.00 463.00 L 509.00 471.00 L 509.00 472.00 L 514.00 477.00 L 515.00 477.00 L 685.00 306.00 L 690.00 307.00 Z M 685.00 210.00 L 688.00 213.00 L 688.00 215.00 L 689.00 216.00 L 687.00 221.00 L 685.00 223.00 L 683.00 228.00 L 681.00 230.00 L 674.00 243.00 L 670.00 246.00 L 666.00 245.00 L 662.00 240.00 L 662.00 238.00 L 664.00 234.00 L 669.00 227.00 L 677.00 212.00 L 680.00 210.00 Z M 338.00 210.00 L 343.00 210.00 L 346.00 212.00 L 354.00 227.00 L 359.00 234.00 L 361.00 238.00 L 361.00 240.00 L 357.00 245.00 L 353.00 246.00 L 349.00 243.00 L 341.00 228.00 L 336.00 221.00 L 334.00 216.00 L 335.00 215.00 L 335.00 213.00 Z M 511.00 160.00 L 517.00 162.00 L 521.00 167.00 L 521.00 223.00 L 519.00 226.00 L 515.00 229.00 L 508.00 229.00 L 505.00 227.00 L 502.00 223.00 L 502.00 167.00 L 506.00 162.00 Z"/><path fill="#3D2BE8" fill-rule="evenodd" d="M 167.00 528.00 L 167.00 538.00 L 168.00 539.00 L 169.00 557.00 L 170.00 558.00 L 170.00 564.00 L 171.00 565.00 L 171.00 570.00 L 172.00 571.00 L 172.00 576.00 L 173.00 577.00 L 173.00 581.00 L 175.00 586.00 L 175.00 590.00 L 176.00 591.00 L 178.00 602.00 L 180.00 606.00 L 180.00 609.00 L 184.00 619.00 L 184.00 622.00 L 186.00 625.00 L 188.00 633.00 L 190.00 636.00 L 190.00 638.00 L 192.00 641.00 L 194.00 648.00 L 199.00 657.00 L 199.00 659.00 L 206.00 673.00 L 208.00 675.00 L 212.00 684.00 L 233.00 716.00 L 243.00 728.00 L 243.00 729.00 L 248.00 734.00 L 248.00 735.00 L 255.00 742.00 L 255.00 743.00 L 280.00 768.00 L 281.00 768.00 L 288.00 775.00 L 289.00 775.00 L 294.00 780.00 L 295.00 780.00 L 307.00 790.00 L 334.00 808.00 L 364.00 824.00 L 366.00 824.00 L 373.00 828.00 L 375.00 828.00 L 380.00 831.00 L 382.00 831.00 L 390.00 835.00 L 392.00 835.00 L 414.00 843.00 L 417.00 843.00 L 421.00 845.00 L 424.00 845.00 L 425.00 846.00 L 428.00 846.00 L 433.00 848.00 L 437.00 848.00 L 442.00 850.00 L 447.00 850.00 L 448.00 851.00 L 458.00 852.00 L 459.00 853.00 L 465.00 853.00 L 466.00 854.00 L 474.00 854.00 L 475.00 855.00 L 484.00 855.00 L 485.00 856.00 L 507.00 856.00 L 508.00 857.00 L 515.00 857.00 L 516.00 856.00 L 538.00 856.00 L 539.00 855.00 L 548.00 855.00 L 549.00 854.00 L 557.00 854.00 L 558.00 853.00 L 564.00 853.00 L 565.00 852.00 L 576.00 851.00 L 577.00 850.00 L 581.00 850.00 L 586.00 848.00 L 590.00 848.00 L 591.00 847.00 L 602.00 845.00 L 606.00 843.00 L 609.00 843.00 L 610.00 842.00 L 633.00 835.00 L 636.00 833.00 L 638.00 833.00 L 641.00 831.00 L 648.00 829.00 L 655.00 825.00 L 657.00 825.00 L 689.00 808.00 L 716.00 790.00 L 728.00 780.00 L 729.00 780.00 L 734.00 775.00 L 735.00 775.00 L 742.00 768.00 L 743.00 768.00 L 768.00 743.00 L 768.00 742.00 L 775.00 735.00 L 775.00 734.00 L 780.00 729.00 L 780.00 728.00 L 790.00 716.00 L 808.00 689.00 L 824.00 659.00 L 824.00 657.00 L 829.00 648.00 L 829.00 646.00 L 835.00 633.00 L 835.00 631.00 L 843.00 609.00 L 843.00 606.00 L 845.00 602.00 L 845.00 599.00 L 846.00 598.00 L 846.00 595.00 L 848.00 590.00 L 848.00 586.00 L 850.00 581.00 L 851.00 571.00 L 852.00 570.00 L 853.00 558.00 L 854.00 557.00 L 854.00 549.00 L 855.00 548.00 L 855.00 539.00 L 856.00 538.00 L 856.00 533.00 L 854.00 532.00 L 844.00 530.00 L 843.00 529.00 L 840.00 529.00 L 839.00 528.00 L 828.00 527.00 L 827.00 526.00 L 818.00 526.00 L 817.00 525.00 L 792.00 525.00 L 791.00 526.00 L 775.00 527.00 L 774.00 528.00 L 769.00 528.00 L 768.00 529.00 L 759.00 530.00 L 754.00 532.00 L 750.00 532.00 L 746.00 534.00 L 743.00 534.00 L 739.00 536.00 L 729.00 538.00 L 728.00 539.00 L 714.00 543.00 L 711.00 545.00 L 694.00 550.00 L 691.00 552.00 L 677.00 556.00 L 674.00 558.00 L 672.00 558.00 L 671.00 559.00 L 669.00 559.00 L 668.00 560.00 L 666.00 560.00 L 665.00 561.00 L 663.00 561.00 L 662.00 562.00 L 660.00 562.00 L 659.00 563.00 L 657.00 563.00 L 635.00 571.00 L 632.00 571.00 L 628.00 573.00 L 625.00 573.00 L 621.00 575.00 L 618.00 575.00 L 617.00 576.00 L 614.00 576.00 L 613.00 577.00 L 610.00 577.00 L 609.00 578.00 L 606.00 578.00 L 601.00 580.00 L 597.00 580.00 L 596.00 581.00 L 588.00 582.00 L 587.00 583.00 L 582.00 583.00 L 581.00 584.00 L 576.00 584.00 L 575.00 585.00 L 561.00 586.00 L 560.00 587.00 L 551.00 587.00 L 550.00 588.00 L 509.00 589.00 L 508.00 588.00 L 493.00 588.00 L 492.00 587.00 L 482.00 587.00 L 481.00 586.00 L 467.00 585.00 L 466.00 584.00 L 455.00 583.00 L 454.00 582.00 L 450.00 582.00 L 449.00 581.00 L 445.00 581.00 L 444.00 580.00 L 441.00 580.00 L 436.00 578.00 L 428.00 577.00 L 424.00 575.00 L 421.00 575.00 L 420.00 574.00 L 417.00 574.00 L 406.00 570.00 L 403.00 570.00 L 402.00 569.00 L 376.00 561.00 L 373.00 559.00 L 365.00 557.00 L 362.00 555.00 L 360.00 555.00 L 354.00 552.00 L 349.00 551.00 L 346.00 549.00 L 338.00 547.00 L 335.00 545.00 L 330.00 544.00 L 319.00 539.00 L 317.00 539.00 L 316.00 538.00 L 314.00 538.00 L 292.00 530.00 L 289.00 530.00 L 285.00 528.00 L 282.00 528.00 L 281.00 527.00 L 271.00 525.00 L 270.00 524.00 L 256.00 522.00 L 255.00 521.00 L 241.00 520.00 L 240.00 519.00 L 227.00 519.00 L 226.00 518.00 L 222.00 521.00 L 192.00 521.00 L 191.00 522.00 L 187.00 522.00 L 186.00 523.00 L 179.00 524.00 L 178.00 525.00 L 172.00 526.00 Z M 357.00 776.00 L 358.00 775.00 L 359.00 776.00 L 358.00 777.00 Z M 243.00 591.00 L 245.00 591.00 L 255.00 587.00 L 258.00 592.00 L 258.00 594.00 L 267.00 611.00 L 267.00 613.00 L 278.00 635.00 L 279.00 642.00 L 280.00 643.00 L 280.00 646.00 L 281.00 647.00 L 281.00 650.00 L 282.00 651.00 L 282.00 654.00 L 283.00 655.00 L 285.00 663.00 L 298.00 691.00 L 300.00 693.00 L 305.00 703.00 L 311.00 711.00 L 312.00 714.00 L 315.00 717.00 L 324.00 731.00 L 357.00 773.00 L 358.00 775.00 L 357.00 776.00 L 355.00 776.00 L 352.00 774.00 L 345.00 772.00 L 340.00 769.00 L 338.00 769.00 L 320.00 760.00 L 318.00 758.00 L 313.00 756.00 L 311.00 754.00 L 308.00 753.00 L 287.00 738.00 L 281.00 732.00 L 280.00 732.00 L 268.00 720.00 L 268.00 719.00 L 262.00 713.00 L 252.00 699.00 L 241.00 677.00 L 241.00 675.00 L 238.00 668.00 L 237.00 661.00 L 236.00 660.00 L 235.00 649.00 L 234.00 648.00 L 234.00 623.00 L 235.00 622.00 L 235.00 616.00 L 236.00 615.00 L 236.00 611.00 L 237.00 610.00 L 238.00 602.00 L 239.00 601.00 L 241.00 593.00 Z M 736.00 583.00 L 740.00 588.00 L 745.00 597.00 L 745.00 599.00 L 748.00 604.00 L 748.00 606.00 L 750.00 610.00 L 750.00 613.00 L 751.00 614.00 L 751.00 618.00 L 752.00 619.00 L 752.00 628.00 L 753.00 629.00 L 751.00 648.00 L 750.00 649.00 L 750.00 652.00 L 749.00 653.00 L 747.00 661.00 L 739.00 676.00 L 733.00 684.00 L 718.00 699.00 L 710.00 704.00 L 709.00 703.00 L 713.00 697.00 L 713.00 695.00 L 716.00 690.00 L 716.00 688.00 L 718.00 685.00 L 718.00 683.00 L 722.00 673.00 L 723.00 665.00 L 724.00 664.00 L 724.00 660.00 L 725.00 659.00 L 725.00 654.00 L 726.00 653.00 L 726.00 644.00 L 727.00 643.00 L 727.00 626.00 L 726.00 625.00 L 725.00 609.00 L 724.00 608.00 L 724.00 604.00 L 723.00 603.00 L 722.00 596.00 L 721.00 595.00 L 720.00 589.00 L 718.00 584.00 L 719.00 583.00 Z"/><path fill="#9F90FB" fill-rule="evenodd" d="M 243.00 593.00 L 240.00 600.00 L 240.00 603.00 L 238.00 608.00 L 238.00 612.00 L 237.00 613.00 L 237.00 618.00 L 236.00 619.00 L 236.00 627.00 L 235.00 628.00 L 235.00 642.00 L 236.00 643.00 L 237.00 658.00 L 238.00 659.00 L 240.00 670.00 L 243.00 676.00 L 244.00 681.00 L 253.00 698.00 L 266.00 716.00 L 283.00 733.00 L 284.00 733.00 L 297.00 744.00 L 314.00 755.00 L 319.00 757.00 L 321.00 759.00 L 337.00 767.00 L 339.00 767.00 L 346.00 771.00 L 348.00 771.00 L 351.00 773.00 L 353.00 773.00 L 357.00 775.00 L 321.00 729.00 L 304.00 704.00 L 299.00 694.00 L 297.00 692.00 L 285.00 667.00 L 285.00 665.00 L 280.00 652.00 L 280.00 649.00 L 278.00 644.00 L 278.00 640.00 L 277.00 639.00 L 276.00 634.00 L 274.00 631.00 L 274.00 629.00 L 264.00 610.00 L 264.00 608.00 L 256.00 593.00 L 255.00 589.00 Z"/><path fill="#9080F9" fill-rule="evenodd" d="M 736.00 584.00 L 719.00 584.00 L 721.00 589.00 L 721.00 592.00 L 723.00 596.00 L 723.00 599.00 L 725.00 604.00 L 725.00 608.00 L 726.00 609.00 L 727.00 625.00 L 728.00 626.00 L 728.00 643.00 L 727.00 644.00 L 727.00 653.00 L 726.00 654.00 L 726.00 659.00 L 725.00 660.00 L 725.00 664.00 L 724.00 665.00 L 723.00 673.00 L 722.00 674.00 L 719.00 685.00 L 717.00 688.00 L 717.00 690.00 L 714.00 695.00 L 714.00 697.00 L 710.00 703.00 L 718.00 698.00 L 732.00 684.00 L 738.00 676.00 L 746.00 661.00 L 746.00 659.00 L 749.00 652.00 L 749.00 649.00 L 750.00 648.00 L 750.00 644.00 L 751.00 643.00 L 751.00 635.00 L 752.00 634.00 L 750.00 614.00 L 749.00 613.00 L 749.00 610.00 L 748.00 609.00 L 747.00 604.00 L 744.00 599.00 L 744.00 597.00 Z"/><path fill="#0C1142" fill-rule="evenodd" d="M 504.00 116.00 L 503.00 117.00 L 482.00 117.00 L 481.00 118.00 L 471.00 118.00 L 470.00 119.00 L 455.00 120.00 L 454.00 121.00 L 448.00 121.00 L 447.00 122.00 L 443.00 122.00 L 442.00 123.00 L 432.00 124.00 L 427.00 126.00 L 423.00 126.00 L 422.00 127.00 L 407.00 130.00 L 406.00 131.00 L 400.00 132.00 L 390.00 136.00 L 387.00 136.00 L 381.00 139.00 L 379.00 139.00 L 378.00 140.00 L 373.00 141.00 L 370.00 143.00 L 368.00 143.00 L 365.00 145.00 L 363.00 145.00 L 360.00 147.00 L 358.00 147.00 L 353.00 150.00 L 351.00 150.00 L 319.00 166.00 L 317.00 168.00 L 302.00 176.00 L 281.00 190.00 L 260.00 207.00 L 259.00 207.00 L 253.00 213.00 L 252.00 213.00 L 221.00 243.00 L 221.00 244.00 L 213.00 252.00 L 213.00 253.00 L 199.00 269.00 L 176.00 302.00 L 156.00 338.00 L 156.00 340.00 L 150.00 351.00 L 150.00 353.00 L 147.00 358.00 L 147.00 360.00 L 141.00 373.00 L 141.00 375.00 L 140.00 376.00 L 139.00 381.00 L 137.00 384.00 L 136.00 390.00 L 132.00 400.00 L 132.00 403.00 L 130.00 407.00 L 130.00 410.00 L 129.00 411.00 L 129.00 414.00 L 128.00 415.00 L 128.00 418.00 L 126.00 423.00 L 126.00 427.00 L 124.00 432.00 L 122.00 447.00 L 121.00 448.00 L 121.00 454.00 L 120.00 455.00 L 120.00 461.00 L 119.00 462.00 L 119.00 470.00 L 118.00 471.00 L 118.00 481.00 L 117.00 482.00 L 116.00 520.00 L 117.00 521.00 L 117.00 541.00 L 118.00 542.00 L 119.00 561.00 L 120.00 562.00 L 120.00 568.00 L 121.00 569.00 L 121.00 574.00 L 122.00 575.00 L 122.00 580.00 L 123.00 581.00 L 123.00 586.00 L 124.00 587.00 L 124.00 591.00 L 126.00 596.00 L 126.00 600.00 L 127.00 601.00 L 130.00 616.00 L 132.00 620.00 L 132.00 623.00 L 137.00 636.00 L 137.00 639.00 L 139.00 642.00 L 141.00 650.00 L 143.00 653.00 L 143.00 655.00 L 145.00 658.00 L 147.00 665.00 L 150.00 670.00 L 150.00 672.00 L 166.00 704.00 L 168.00 706.00 L 176.00 721.00 L 190.00 742.00 L 207.00 763.00 L 207.00 764.00 L 213.00 770.00 L 213.00 771.00 L 243.00 802.00 L 244.00 802.00 L 252.00 810.00 L 253.00 810.00 L 269.00 824.00 L 302.00 847.00 L 338.00 867.00 L 340.00 867.00 L 351.00 873.00 L 353.00 873.00 L 358.00 876.00 L 360.00 876.00 L 373.00 882.00 L 375.00 882.00 L 376.00 883.00 L 381.00 884.00 L 384.00 886.00 L 387.00 886.00 L 400.00 891.00 L 403.00 891.00 L 407.00 893.00 L 410.00 893.00 L 411.00 894.00 L 414.00 894.00 L 415.00 895.00 L 418.00 895.00 L 423.00 897.00 L 427.00 897.00 L 432.00 899.00 L 447.00 901.00 L 448.00 902.00 L 462.00 903.00 L 463.00 904.00 L 470.00 904.00 L 471.00 905.00 L 481.00 905.00 L 482.00 906.00 L 519.00 907.00 L 520.00 906.00 L 540.00 906.00 L 541.00 905.00 L 552.00 905.00 L 553.00 904.00 L 561.00 904.00 L 562.00 903.00 L 568.00 903.00 L 569.00 902.00 L 575.00 902.00 L 576.00 901.00 L 580.00 901.00 L 581.00 900.00 L 591.00 899.00 L 596.00 897.00 L 600.00 897.00 L 601.00 896.00 L 616.00 893.00 L 617.00 892.00 L 623.00 891.00 L 633.00 887.00 L 636.00 887.00 L 642.00 884.00 L 644.00 884.00 L 645.00 883.00 L 650.00 882.00 L 653.00 880.00 L 655.00 880.00 L 658.00 878.00 L 660.00 878.00 L 663.00 876.00 L 665.00 876.00 L 670.00 873.00 L 672.00 873.00 L 704.00 857.00 L 706.00 855.00 L 721.00 847.00 L 742.00 833.00 L 763.00 816.00 L 764.00 816.00 L 770.00 810.00 L 771.00 810.00 L 802.00 780.00 L 802.00 779.00 L 810.00 771.00 L 810.00 770.00 L 824.00 754.00 L 847.00 721.00 L 867.00 685.00 L 867.00 683.00 L 873.00 672.00 L 873.00 670.00 L 876.00 665.00 L 876.00 663.00 L 882.00 650.00 L 882.00 648.00 L 883.00 647.00 L 884.00 642.00 L 886.00 639.00 L 886.00 636.00 L 891.00 623.00 L 891.00 620.00 L 893.00 616.00 L 893.00 613.00 L 894.00 612.00 L 894.00 609.00 L 895.00 608.00 L 895.00 605.00 L 897.00 600.00 L 897.00 596.00 L 899.00 591.00 L 899.00 587.00 L 900.00 586.00 L 900.00 581.00 L 901.00 580.00 L 901.00 575.00 L 902.00 574.00 L 902.00 569.00 L 903.00 568.00 L 903.00 561.00 L 904.00 560.00 L 904.00 553.00 L 905.00 552.00 L 905.00 541.00 L 906.00 540.00 L 906.00 520.00 L 907.00 519.00 L 907.00 504.00 L 906.00 503.00 L 906.00 482.00 L 905.00 481.00 L 905.00 471.00 L 904.00 470.00 L 903.00 455.00 L 902.00 454.00 L 902.00 449.00 L 901.00 448.00 L 901.00 443.00 L 900.00 442.00 L 899.00 432.00 L 897.00 427.00 L 897.00 423.00 L 896.00 422.00 L 893.00 407.00 L 892.00 406.00 L 891.00 400.00 L 887.00 390.00 L 887.00 387.00 L 884.00 381.00 L 884.00 379.00 L 883.00 378.00 L 882.00 373.00 L 880.00 370.00 L 880.00 368.00 L 878.00 365.00 L 878.00 363.00 L 876.00 360.00 L 876.00 358.00 L 873.00 353.00 L 873.00 351.00 L 857.00 319.00 L 855.00 317.00 L 847.00 302.00 L 833.00 281.00 L 816.00 260.00 L 816.00 259.00 L 811.00 254.00 L 811.00 253.00 L 780.00 221.00 L 779.00 221.00 L 770.00 212.00 L 769.00 212.00 L 754.00 199.00 L 721.00 176.00 L 683.00 155.00 L 681.00 155.00 L 672.00 150.00 L 670.00 150.00 L 665.00 147.00 L 663.00 147.00 L 650.00 141.00 L 642.00 139.00 L 639.00 137.00 L 637.00 137.00 L 633.00 135.00 L 630.00 135.00 L 623.00 132.00 L 620.00 132.00 L 616.00 130.00 L 613.00 130.00 L 612.00 129.00 L 609.00 129.00 L 608.00 128.00 L 605.00 128.00 L 600.00 126.00 L 596.00 126.00 L 591.00 124.00 L 576.00 122.00 L 575.00 121.00 L 569.00 121.00 L 568.00 120.00 L 562.00 120.00 L 561.00 119.00 L 553.00 119.00 L 552.00 118.00 L 542.00 118.00 L 541.00 117.00 Z M 488.00 143.00 L 535.00 143.00 L 536.00 144.00 L 547.00 144.00 L 548.00 145.00 L 564.00 146.00 L 565.00 147.00 L 576.00 148.00 L 577.00 149.00 L 591.00 151.00 L 592.00 152.00 L 595.00 152.00 L 600.00 154.00 L 604.00 154.00 L 608.00 156.00 L 618.00 158.00 L 619.00 159.00 L 639.00 165.00 L 642.00 167.00 L 644.00 167.00 L 647.00 169.00 L 654.00 171.00 L 659.00 174.00 L 661.00 174.00 L 670.00 179.00 L 672.00 179.00 L 678.00 183.00 L 691.00 189.00 L 693.00 191.00 L 703.00 196.00 L 727.00 212.00 L 743.00 225.00 L 744.00 225.00 L 756.00 236.00 L 757.00 236.00 L 786.00 265.00 L 786.00 266.00 L 793.00 273.00 L 793.00 274.00 L 798.00 279.00 L 798.00 280.00 L 811.00 296.00 L 830.00 325.00 L 849.00 362.00 L 849.00 364.00 L 852.00 369.00 L 852.00 371.00 L 856.00 379.00 L 857.00 384.00 L 859.00 387.00 L 859.00 389.00 L 865.00 405.00 L 865.00 408.00 L 867.00 412.00 L 867.00 415.00 L 868.00 416.00 L 868.00 419.00 L 869.00 420.00 L 869.00 423.00 L 870.00 424.00 L 870.00 427.00 L 872.00 432.00 L 872.00 436.00 L 873.00 437.00 L 873.00 441.00 L 874.00 442.00 L 874.00 446.00 L 875.00 447.00 L 875.00 452.00 L 876.00 453.00 L 876.00 459.00 L 877.00 460.00 L 877.00 466.00 L 878.00 467.00 L 878.00 475.00 L 879.00 476.00 L 879.00 487.00 L 880.00 488.00 L 880.00 535.00 L 879.00 536.00 L 878.00 556.00 L 877.00 557.00 L 876.00 570.00 L 875.00 571.00 L 875.00 576.00 L 874.00 577.00 L 872.00 591.00 L 871.00 592.00 L 871.00 595.00 L 870.00 596.00 L 867.00 611.00 L 865.00 615.00 L 865.00 618.00 L 864.00 619.00 L 859.00 636.00 L 857.00 639.00 L 856.00 644.00 L 854.00 647.00 L 852.00 654.00 L 849.00 659.00 L 849.00 661.00 L 830.00 698.00 L 811.00 727.00 L 798.00 743.00 L 798.00 744.00 L 786.00 757.00 L 786.00 758.00 L 757.00 787.00 L 756.00 787.00 L 739.00 802.00 L 711.00 822.00 L 708.00 823.00 L 703.00 827.00 L 693.00 832.00 L 691.00 834.00 L 678.00 840.00 L 676.00 842.00 L 674.00 842.00 L 661.00 849.00 L 659.00 849.00 L 654.00 852.00 L 652.00 852.00 L 639.00 858.00 L 637.00 858.00 L 618.00 865.00 L 615.00 865.00 L 611.00 867.00 L 608.00 867.00 L 607.00 868.00 L 604.00 868.00 L 603.00 869.00 L 600.00 869.00 L 599.00 870.00 L 596.00 870.00 L 591.00 872.00 L 577.00 874.00 L 576.00 875.00 L 571.00 875.00 L 570.00 876.00 L 565.00 876.00 L 564.00 877.00 L 557.00 877.00 L 556.00 878.00 L 548.00 878.00 L 547.00 879.00 L 536.00 879.00 L 535.00 880.00 L 488.00 880.00 L 487.00 879.00 L 467.00 878.00 L 466.00 877.00 L 453.00 876.00 L 452.00 875.00 L 447.00 875.00 L 446.00 874.00 L 432.00 872.00 L 431.00 871.00 L 428.00 871.00 L 427.00 870.00 L 412.00 867.00 L 408.00 865.00 L 405.00 865.00 L 404.00 864.00 L 387.00 859.00 L 384.00 857.00 L 379.00 856.00 L 376.00 854.00 L 369.00 852.00 L 364.00 849.00 L 362.00 849.00 L 351.00 843.00 L 349.00 843.00 L 347.00 841.00 L 325.00 830.00 L 296.00 811.00 L 280.00 798.00 L 279.00 798.00 L 266.00 786.00 L 265.00 786.00 L 237.00 758.00 L 237.00 757.00 L 221.00 739.00 L 201.00 711.00 L 200.00 708.00 L 196.00 703.00 L 191.00 693.00 L 189.00 691.00 L 182.00 676.00 L 180.00 674.00 L 180.00 672.00 L 174.00 661.00 L 174.00 659.00 L 171.00 654.00 L 171.00 652.00 L 167.00 644.00 L 167.00 642.00 L 164.00 636.00 L 164.00 634.00 L 158.00 618.00 L 158.00 615.00 L 156.00 611.00 L 156.00 608.00 L 155.00 607.00 L 155.00 604.00 L 154.00 603.00 L 154.00 600.00 L 153.00 599.00 L 153.00 596.00 L 151.00 591.00 L 149.00 577.00 L 148.00 576.00 L 148.00 571.00 L 147.00 570.00 L 147.00 565.00 L 146.00 564.00 L 146.00 557.00 L 145.00 556.00 L 145.00 548.00 L 144.00 547.00 L 144.00 536.00 L 143.00 535.00 L 143.00 488.00 L 144.00 487.00 L 144.00 476.00 L 145.00 475.00 L 146.00 459.00 L 147.00 458.00 L 148.00 447.00 L 149.00 446.00 L 151.00 432.00 L 152.00 431.00 L 152.00 428.00 L 153.00 427.00 L 156.00 412.00 L 158.00 408.00 L 158.00 405.00 L 159.00 404.00 L 165.00 384.00 L 167.00 381.00 L 167.00 379.00 L 169.00 376.00 L 171.00 369.00 L 174.00 364.00 L 174.00 362.00 L 180.00 351.00 L 180.00 349.00 L 183.00 345.00 L 189.00 332.00 L 191.00 330.00 L 196.00 320.00 L 212.00 296.00 L 225.00 280.00 L 225.00 279.00 L 236.00 267.00 L 236.00 266.00 L 265.00 237.00 L 266.00 237.00 L 284.00 221.00 L 296.00 212.00 L 300.00 210.00 L 303.00 207.00 L 312.00 202.00 L 320.00 196.00 L 330.00 191.00 L 332.00 189.00 L 347.00 182.00 L 349.00 180.00 L 351.00 180.00 L 362.00 174.00 L 364.00 174.00 L 369.00 171.00 L 371.00 171.00 L 379.00 167.00 L 381.00 167.00 L 387.00 164.00 L 389.00 164.00 L 405.00 158.00 L 408.00 158.00 L 412.00 156.00 L 415.00 156.00 L 416.00 155.00 L 419.00 155.00 L 420.00 154.00 L 423.00 154.00 L 424.00 153.00 L 427.00 153.00 L 432.00 151.00 L 446.00 149.00 L 447.00 148.00 L 459.00 147.00 L 460.00 146.00 L 466.00 146.00 L 467.00 145.00 L 475.00 145.00 L 476.00 144.00 L 487.00 144.00 Z M 795.00 510.00 L 796.00 516.00 L 799.00 519.00 L 801.00 519.00 L 802.00 520.00 L 855.00 520.00 L 857.00 519.00 L 861.00 514.00 L 861.00 509.00 L 860.00 507.00 L 855.00 503.00 L 802.00 503.00 L 801.00 504.00 L 799.00 504.00 L 796.00 507.00 L 796.00 509.00 Z M 162.00 509.00 L 162.00 514.00 L 163.00 516.00 L 168.00 520.00 L 222.00 520.00 L 227.00 516.00 L 227.00 514.00 L 228.00 513.00 L 227.00 507.00 L 224.00 504.00 L 222.00 504.00 L 221.00 503.00 L 168.00 503.00 L 166.00 504.00 Z M 812.00 339.00 L 809.00 336.00 L 805.00 336.00 L 801.00 339.00 L 782.00 349.00 L 779.00 352.00 L 779.00 357.00 L 781.00 359.00 L 786.00 359.00 L 790.00 356.00 L 795.00 354.00 L 797.00 352.00 L 802.00 350.00 L 804.00 348.00 L 810.00 345.00 L 812.00 342.00 Z M 211.00 339.00 L 211.00 342.00 L 213.00 345.00 L 219.00 348.00 L 221.00 350.00 L 226.00 352.00 L 228.00 354.00 L 233.00 356.00 L 237.00 359.00 L 242.00 359.00 L 244.00 357.00 L 244.00 352.00 L 241.00 349.00 L 236.00 347.00 L 234.00 345.00 L 229.00 343.00 L 218.00 336.00 L 214.00 336.00 Z M 698.00 316.00 L 688.00 307.00 L 684.00 308.00 L 675.00 317.00 L 675.00 318.00 L 514.00 479.00 L 401.00 352.00 L 397.00 353.00 L 393.00 357.00 L 392.00 357.00 L 387.00 362.00 L 387.00 364.00 L 419.00 412.00 L 420.00 415.00 L 434.00 435.00 L 435.00 438.00 L 449.00 458.00 L 450.00 461.00 L 462.00 478.00 L 463.00 481.00 L 477.00 501.00 L 478.00 504.00 L 488.00 518.00 L 491.00 525.00 L 497.00 531.00 L 502.00 534.00 L 504.00 534.00 L 505.00 535.00 L 518.00 535.00 L 526.00 531.00 L 531.00 526.00 L 534.00 521.00 L 535.00 516.00 L 537.00 513.00 L 542.00 508.00 L 542.00 507.00 L 567.00 478.00 L 571.00 472.00 L 576.00 467.00 L 576.00 466.00 L 606.00 431.00 L 610.00 425.00 L 645.00 384.00 L 649.00 378.00 L 684.00 337.00 L 688.00 331.00 L 698.00 320.00 Z M 684.00 211.00 L 681.00 211.00 L 678.00 213.00 L 675.00 219.00 L 673.00 221.00 L 671.00 226.00 L 669.00 228.00 L 667.00 233.00 L 664.00 237.00 L 664.00 242.00 L 666.00 244.00 L 671.00 244.00 L 674.00 241.00 L 676.00 236.00 L 678.00 234.00 L 680.00 229.00 L 687.00 218.00 L 687.00 214.00 Z M 339.00 211.00 L 336.00 214.00 L 336.00 218.00 L 339.00 222.00 L 349.00 241.00 L 352.00 244.00 L 357.00 244.00 L 359.00 242.00 L 359.00 237.00 L 356.00 233.00 L 354.00 228.00 L 352.00 226.00 L 350.00 221.00 L 348.00 219.00 L 345.00 213.00 L 342.00 211.00 Z M 509.00 162.00 L 507.00 163.00 L 503.00 168.00 L 503.00 221.00 L 504.00 222.00 L 504.00 224.00 L 507.00 227.00 L 513.00 228.00 L 514.00 227.00 L 516.00 227.00 L 519.00 224.00 L 519.00 222.00 L 520.00 221.00 L 520.00 168.00 L 516.00 163.00 L 514.00 162.00 Z"/>
</svg>
